<svg id="musical_symbol-xxhdpi" width="192" height="192" xmlns="http://www.w3.org/2000/svg">
  <rect x="6" y="6" rx="9" ry="9" width="180" height="180"
  style="fill-opacity:0.0;stroke:#0d4351;stroke-width:5;opacity:1.0"></rect>
  <path
     transform="matrix(0.15,0,0,-0.15,102,24)"
     d="m 0,0 c 0,-198 209,-335 209,-533 0,-71 -16,-141 -42,-207 -5,-8 -12,-12 -19,-12 -13,0 -26,11 -23,27 26,61 42,126 42,192 0,104 -95,208 -167,283 l -16,0 0,250 16,0 z"
     style="fill:#0d4351" />
  <rect x="93" y="22" rx="3" ry="3" width="9" height="123"
     style="fill:#0d4351" />
  <path
     transform="matrix(0.15,0,0,-0.15,52,145)"
     d="m 220,138 c 56,0 109,-29 109,-91 0,-72 -56,-121 -103,-149 -36,-21 -76,-36 -117,-36 -56,0 -109,29 -109,91 0,72 56,121 103,149 36,21 76,36 117,36 z"
     style="fill:#0d4351" />
</svg>
