<svg id="musical_symbol-xhdpi" width="128" height="128" xmlns="http://www.w3.org/2000/svg">
  <rect x="4" y="4" rx="6" ry="6" width="120" height="120"
  style="fill-opacity:0.0;stroke:#0d4351;stroke-width:3;opacity:1.0"></rect>
  <path
     transform="matrix(0.1,0,0,-0.1,68,16)"
     d="m 0,0 c 0,-198 209,-335 209,-533 0,-71 -16,-141 -42,-207 -5,-8 -12,-12 -19,-12 -13,0 -26,11 -23,27 26,61 42,126 42,192 0,104 -95,208 -167,283 l -16,0 0,250 16,0 z"
     style="fill:#0d4351" />
  <rect x="62" y="15" rx="2" ry="2" width="6" height="82"
     style="fill:#0d4351" />
  <path
     transform="matrix(0.1,0,0,-0.1,35,97)"
     d="m 220,138 c 56,0 109,-29 109,-91 0,-72 -56,-121 -103,-149 -36,-21 -76,-36 -117,-36 -56,0 -109,29 -109,91 0,72 56,121 103,149 36,21 76,36 117,36 z"
     style="fill:#0d4351" />
</svg>
