<svg id="musical_symbol-xxxhdpi" width="256" height="256" xmlns="http://www.w3.org/2000/svg">
  <rect x="8" y="8" rx="12" ry="12" width="240" height="240"
  style="fill-opacity:0.0;stroke:#0d4351;stroke-width:6;opacity:1.0"></rect>
  <path
     transform="matrix(0.2,0,0,-0.2,136,32)"
     d="m 0,0 c 0,-198 209,-335 209,-533 0,-71 -16,-141 -42,-207 -5,-8 -12,-12 -19,-12 -13,0 -26,11 -23,27 26,61 42,126 42,192 0,104 -95,208 -167,283 l -16,0 0,250 16,0 z"
     style="fill:#95a2a5" />
  <rect x="124" y="30" rx="4" ry="4" width="12" height="164"
     style="fill:#95a2a5" />
  <path
     transform="matrix(0.2,0,0,-0.2,70,195)"
     d="m 220,138 c 56,0 109,-29 109,-91 0,-72 -56,-121 -103,-149 -36,-21 -76,-36 -117,-36 -56,0 -109,29 -109,91 0,72 56,121 103,149 36,21 76,36 117,36 z"
     style="fill:#95a2a5" />
</svg>
